# xmcd
#
# Track frame offsets:
#	150
#	15344
#	29048
#	47568
#	72226
#	83778
#	101090
#	115696
#	133728
#	158691
#
# Disc length: 2163 seconds
#
# Revision: 1
# Processed by: cddbd v1.5.2PL0 Copyright (c) Steve Scherf et al.
# Submitted via: audiograbber 1.83.01
#
DISCID=7a08710a
DTITLE=breakout - Na_Drugim_Brzegu_
DYEAR=1969
DGENRE=blues
TTITLE0=BREAKOUT - 01 - "@5:  1
TTITLE1=BREAKOUT - 02 - "@5:  2
TTITLE2=BREAKOUT - 03 - "@5:  3
TTITLE3=BREAKOUT - 04 - "@5:  4
TTITLE4=BREAKOUT - 05 - "@5:  5
TTITLE5=BREAKOUT - 06 - "@5:  6
TTITLE6=BREAKOUT - 07 - "@5:  7
TTITLE7=BREAKOUT - 08 - "@5:  8
TTITLE8=BREAKOUT - 09 - "@5:  9
TTITLE9=BREAKOUT - 10 - "@5: 10
EXTD=
EXTT0=
EXTT1=
EXTT2=
EXTT3=
EXTT4=
EXTT5=
EXTT6=
EXTT7=
EXTT8=
EXTT9=
PLAYORDER=
